<mxfile host="app.diagrams.net" modified="2021-10-18T04:19:43.823Z" agent="5.0 (Windows NT 10.0; Win64; x64) AppleWebKit/537.36 (KHTML, like Gecko) Chrome/94.0.4606.81 Safari/537.36" etag="423_5Y9NGg8NJuKNVayz" version="15.5.2" type="github">
  <diagram id="_a1wEPMVxWlWIXRbED2K" name="Page-1">
    <mxGraphModel dx="1422" dy="794" grid="1" gridSize="10" guides="1" tooltips="1" connect="1" arrows="1" fold="1" page="1" pageScale="1" pageWidth="827" pageHeight="1169" math="0" shadow="0">
      <root>
        <mxCell id="0" />
        <mxCell id="1" parent="0" />
        <mxCell id="B6BCi8dp2Kw6a30h5MJD-17" value="" style="edgeStyle=orthogonalEdgeStyle;rounded=0;orthogonalLoop=1;jettySize=auto;html=1;" edge="1" parent="1" source="B6BCi8dp2Kw6a30h5MJD-2" target="B6BCi8dp2Kw6a30h5MJD-8">
          <mxGeometry relative="1" as="geometry" />
        </mxCell>
        <mxCell id="B6BCi8dp2Kw6a30h5MJD-2" value="appserver" style="rounded=1;whiteSpace=wrap;html=1;fillColor=#ffe6cc;strokeColor=#d79b00;" vertex="1" parent="1">
          <mxGeometry x="230" y="120" width="120" height="60" as="geometry" />
        </mxCell>
        <mxCell id="B6BCi8dp2Kw6a30h5MJD-15" value="" style="edgeStyle=orthogonalEdgeStyle;rounded=0;orthogonalLoop=1;jettySize=auto;html=1;" edge="1" parent="1" source="B6BCi8dp2Kw6a30h5MJD-3" target="B6BCi8dp2Kw6a30h5MJD-9">
          <mxGeometry relative="1" as="geometry" />
        </mxCell>
        <mxCell id="B6BCi8dp2Kw6a30h5MJD-39" style="edgeStyle=orthogonalEdgeStyle;rounded=0;orthogonalLoop=1;jettySize=auto;html=1;entryX=1;entryY=0.5;entryDx=0;entryDy=0;" edge="1" parent="1" target="B6BCi8dp2Kw6a30h5MJD-3">
          <mxGeometry relative="1" as="geometry">
            <mxPoint x="430" y="230" as="sourcePoint" />
            <mxPoint x="360" y="210" as="targetPoint" />
          </mxGeometry>
        </mxCell>
        <mxCell id="B6BCi8dp2Kw6a30h5MJD-43" value="" style="edgeStyle=orthogonalEdgeStyle;rounded=0;orthogonalLoop=1;jettySize=auto;html=1;" edge="1" parent="1" source="B6BCi8dp2Kw6a30h5MJD-3" target="B6BCi8dp2Kw6a30h5MJD-11">
          <mxGeometry relative="1" as="geometry" />
        </mxCell>
        <mxCell id="B6BCi8dp2Kw6a30h5MJD-3" value="messageservice" style="rounded=1;whiteSpace=wrap;html=1;fillColor=#fff2cc;strokeColor=#d6b656;" vertex="1" parent="1">
          <mxGeometry x="230" y="200" width="120" height="60" as="geometry" />
        </mxCell>
        <mxCell id="B6BCi8dp2Kw6a30h5MJD-4" value="fileserver" style="rounded=1;whiteSpace=wrap;html=1;fillColor=#ffe6cc;strokeColor=#d79b00;" vertex="1" parent="1">
          <mxGeometry x="230" y="280" width="120" height="60" as="geometry" />
        </mxCell>
        <mxCell id="B6BCi8dp2Kw6a30h5MJD-20" style="edgeStyle=orthogonalEdgeStyle;rounded=0;orthogonalLoop=1;jettySize=auto;html=1;exitX=0.5;exitY=1;exitDx=0;exitDy=0;entryX=0.5;entryY=0;entryDx=0;entryDy=0;" edge="1" parent="1" source="B6BCi8dp2Kw6a30h5MJD-8" target="B6BCi8dp2Kw6a30h5MJD-9">
          <mxGeometry relative="1" as="geometry" />
        </mxCell>
        <mxCell id="B6BCi8dp2Kw6a30h5MJD-8" value="redis" style="rounded=1;whiteSpace=wrap;html=1;fillColor=#d5e8d4;strokeColor=#82b366;" vertex="1" parent="1">
          <mxGeometry x="40" y="120" width="120" height="60" as="geometry" />
        </mxCell>
        <mxCell id="B6BCi8dp2Kw6a30h5MJD-9" value="postgres" style="rounded=1;whiteSpace=wrap;html=1;fillColor=#60a917;fontColor=#ffffff;strokeColor=#2D7600;" vertex="1" parent="1">
          <mxGeometry x="40" y="200" width="120" height="60" as="geometry" />
        </mxCell>
        <mxCell id="B6BCi8dp2Kw6a30h5MJD-10" value="mqtt" style="rounded=1;whiteSpace=wrap;html=1;fillColor=#1ba1e2;fontColor=#ffffff;strokeColor=#006EAF;" vertex="1" parent="1">
          <mxGeometry x="40" y="280" width="120" height="60" as="geometry" />
        </mxCell>
        <mxCell id="B6BCi8dp2Kw6a30h5MJD-11" value="robto adaptor" style="rounded=1;whiteSpace=wrap;html=1;fillColor=#6a00ff;fontColor=#ffffff;strokeColor=#3700CC;" vertex="1" parent="1">
          <mxGeometry x="440" y="200" width="120" height="60" as="geometry" />
        </mxCell>
        <mxCell id="B6BCi8dp2Kw6a30h5MJD-12" value="robot application" style="rounded=1;whiteSpace=wrap;html=1;fillColor=#d80073;fontColor=#ffffff;strokeColor=#A50040;" vertex="1" parent="1">
          <mxGeometry x="600" y="200" width="120" height="60" as="geometry" />
        </mxCell>
        <mxCell id="B6BCi8dp2Kw6a30h5MJD-19" value="" style="endArrow=classic;startArrow=classic;html=1;rounded=0;entryX=0;entryY=0.5;entryDx=0;entryDy=0;exitX=1;exitY=0.5;exitDx=0;exitDy=0;" edge="1" parent="1" source="B6BCi8dp2Kw6a30h5MJD-11" target="B6BCi8dp2Kw6a30h5MJD-12">
          <mxGeometry width="50" height="50" relative="1" as="geometry">
            <mxPoint x="550" y="250" as="sourcePoint" />
            <mxPoint x="600" y="200" as="targetPoint" />
          </mxGeometry>
        </mxCell>
        <mxCell id="B6BCi8dp2Kw6a30h5MJD-28" value="" style="endArrow=classic;html=1;rounded=0;entryX=0;entryY=0.25;entryDx=0;entryDy=0;exitX=1;exitY=0.5;exitDx=0;exitDy=0;" edge="1" parent="1" source="B6BCi8dp2Kw6a30h5MJD-2" target="B6BCi8dp2Kw6a30h5MJD-11">
          <mxGeometry width="50" height="50" relative="1" as="geometry">
            <mxPoint x="330" y="190" as="sourcePoint" />
            <mxPoint x="380" y="140" as="targetPoint" />
          </mxGeometry>
        </mxCell>
        <mxCell id="B6BCi8dp2Kw6a30h5MJD-29" value="" style="endArrow=classic;html=1;rounded=0;exitX=1;exitY=0.4;exitDx=0;exitDy=0;exitPerimeter=0;" edge="1" parent="1" source="B6BCi8dp2Kw6a30h5MJD-4">
          <mxGeometry width="50" height="50" relative="1" as="geometry">
            <mxPoint x="389" y="290" as="sourcePoint" />
            <mxPoint x="439" y="240" as="targetPoint" />
          </mxGeometry>
        </mxCell>
        <mxCell id="B6BCi8dp2Kw6a30h5MJD-30" value="" style="endArrow=classic;html=1;rounded=0;exitX=0;exitY=0.75;exitDx=0;exitDy=0;entryX=1;entryY=0.25;entryDx=0;entryDy=0;" edge="1" parent="1" source="B6BCi8dp2Kw6a30h5MJD-3" target="B6BCi8dp2Kw6a30h5MJD-10">
          <mxGeometry width="50" height="50" relative="1" as="geometry">
            <mxPoint x="150" y="440" as="sourcePoint" />
            <mxPoint x="100" y="390" as="targetPoint" />
          </mxGeometry>
        </mxCell>
        <mxCell id="B6BCi8dp2Kw6a30h5MJD-31" value="" style="endArrow=classic;html=1;rounded=0;exitX=-0.025;exitY=0.133;exitDx=0;exitDy=0;exitPerimeter=0;entryX=1;entryY=0.883;entryDx=0;entryDy=0;entryPerimeter=0;" edge="1" parent="1" source="B6BCi8dp2Kw6a30h5MJD-3" target="B6BCi8dp2Kw6a30h5MJD-8">
          <mxGeometry width="50" height="50" relative="1" as="geometry">
            <mxPoint x="160" y="220" as="sourcePoint" />
            <mxPoint x="170" y="170" as="targetPoint" />
          </mxGeometry>
        </mxCell>
        <mxCell id="B6BCi8dp2Kw6a30h5MJD-34" style="edgeStyle=orthogonalEdgeStyle;rounded=0;orthogonalLoop=1;jettySize=auto;html=1;exitX=0.5;exitY=1;exitDx=0;exitDy=0;entryX=0.5;entryY=0;entryDx=0;entryDy=0;" edge="1" parent="1" source="B6BCi8dp2Kw6a30h5MJD-32" target="B6BCi8dp2Kw6a30h5MJD-2">
          <mxGeometry relative="1" as="geometry" />
        </mxCell>
        <mxCell id="B6BCi8dp2Kw6a30h5MJD-32" value="web" style="rounded=1;whiteSpace=wrap;html=1;fillColor=#fa6800;fontColor=#000000;strokeColor=#C73500;" vertex="1" parent="1">
          <mxGeometry x="230" y="10" width="120" height="60" as="geometry" />
        </mxCell>
        <mxCell id="B6BCi8dp2Kw6a30h5MJD-37" value="" style="endArrow=classic;startArrow=classic;html=1;rounded=0;entryX=0;entryY=0.5;entryDx=0;entryDy=0;exitX=0;exitY=0.75;exitDx=0;exitDy=0;" edge="1" parent="1" source="B6BCi8dp2Kw6a30h5MJD-10" target="B6BCi8dp2Kw6a30h5MJD-32">
          <mxGeometry width="50" height="50" relative="1" as="geometry">
            <mxPoint x="390" y="240" as="sourcePoint" />
            <mxPoint x="440" y="190" as="targetPoint" />
            <Array as="points">
              <mxPoint x="10" y="280" />
              <mxPoint x="10" y="40" />
            </Array>
          </mxGeometry>
        </mxCell>
        <mxCell id="B6BCi8dp2Kw6a30h5MJD-38" value="" style="endArrow=classic;startArrow=classic;html=1;rounded=0;exitX=0.4;exitY=1.05;exitDx=0;exitDy=0;exitPerimeter=0;entryX=0;entryY=1;entryDx=0;entryDy=0;" edge="1" parent="1" source="B6BCi8dp2Kw6a30h5MJD-10" target="B6BCi8dp2Kw6a30h5MJD-11">
          <mxGeometry width="50" height="50" relative="1" as="geometry">
            <mxPoint x="130" y="470" as="sourcePoint" />
            <mxPoint x="450" y="260" as="targetPoint" />
            <Array as="points">
              <mxPoint x="88" y="370" />
              <mxPoint x="440" y="370" />
            </Array>
          </mxGeometry>
        </mxCell>
      </root>
    </mxGraphModel>
  </diagram>
</mxfile>
